
<svg fill="#ffffff" xmlns="http://www.w3.org/2000/svg" viewBox="0 0 58 58">
  <path d="M56.25 2.58c-3.45,-3.45 -9.03,-3.45 -12.48,0l-28.2 28.2c-0.38,0.38 -0.64,0.85 -0.77,1.37l-2.94 11.77c-0.25,1 0.04,2.06 0.77,2.79 0.73,0.73 1.79,1.02 2.79,0.77l11.77 -2.94c0.52,-0.13 0.99,-0.4 1.37,-0.77l28.2 -28.2c3.45,-3.45 3.45,-9.03 0,-12.48l-0.51 -0.51zm-8.32 4.16c1.15,-1.15 3.01,-1.15 4.16,0l0.51 0.51c1.15,1.15 1.15,3.01 0,4.16l-2.99 2.99 -4.58 -4.75 2.9 -2.9zm-7.06 7.06l4.58 4.75 -20.47 20.47 -6.22 1.55 1.56 -6.22 20.56 -20.56zm-34.99 4.35c0,-1.63 1.32,-2.94 2.94,-2.94l14.71 0c1.63,0 2.94,-1.32 2.94,-2.94 0,-1.63 -1.32,-2.94 -2.94,-2.94l-14.71 0c-4.87,0 -8.83,3.95 -8.83,8.83l0 32.36c0,4.87 3.95,8.83 8.83,8.83l32.36 0c4.87,0 8.83,-3.95 8.83,-8.83l0 -14.71c0,-1.62 -1.32,-2.94 -2.94,-2.94 -1.63,0 -2.94,1.32 -2.94,2.94l0 14.71c0,1.63 -1.32,2.94 -2.94,2.94l-32.36 0c-1.63,0 -2.94,-1.32 -2.94,-2.94l0 -32.36z"/>
</svg>